# xmcd CD database file
#
# Track frame offsets:
#	187
#	20577
#	39187
#	63337
#	82320
#	101762
#	121917
#	141855
#	156110
#	177562
#	201170
#	219117
#	233295
#	246267
#	258650
#
# Disc length: 3598 seconds
#
# Revision: 2
# Processed by: cddbd v1.5.1PL0 Copyright (c) Steve Scherf et al.
# Submitted via: CDex 1.51
#
DISCID=ce0e0c0f
DTITLE=西城秀樹 - ベスト・パック
DYEAR=1987
DGENRE=Pop
TTITLE0=心で聞いたバラード
TTITLE1=NEW YORK GIRL
TTITLE2=約束の旅
TTITLE3=追憶の瞳
TTITLE4=ミスティ・ブルー
TTITLE5=一万光年の愛
TTITLE6=抱きしめてジルバ
TTITLE7=ギャランドゥ
TTITLE8=YOUNG MAN (Y.M.C.A)
TTITLE9=カイ・ブルー
TTITLE10=君よ抱かれて熱くなれ
TTITLE11=傷だらけのローラ
TTITLE12=激しい恋
TTITLE13=情熱の嵐
TTITLE14=恋する季節
EXTD=YEAR: 1987
EXTT0=
EXTT1=
EXTT2=
EXTT3=
EXTT4=
EXTT5=
EXTT6=
EXTT7=
EXTT8=
EXTT9=
EXTT10=
EXTT11=
EXTT12=
EXTT13=
EXTT14=
PLAYORDER=
